<mxfile host="app.diagrams.net" modified="2022-03-24T07:42:29.384Z" agent="5.0 (Macintosh; Intel Mac OS X 10_15_7) AppleWebKit/605.1.15 (KHTML, like Gecko) Version/15.4 Safari/605.1.15" etag="EvsbliI9sOp4_QGAfinE" version="17.2.1" type="github">
  <diagram id="KHIvG7JCvUpguQxkoBDt" name="Page-1">
    <mxGraphModel dx="880" dy="560" grid="1" gridSize="10" guides="1" tooltips="1" connect="1" arrows="1" fold="1" page="1" pageScale="1" pageWidth="827" pageHeight="1169" background="none" math="0" shadow="0">
      <root>
        <mxCell id="0" />
        <mxCell id="1" parent="0" />
        <mxCell id="zihQ1roNJzVz45EIcrpt-3" value="" style="edgeStyle=orthogonalEdgeStyle;rounded=0;orthogonalLoop=1;jettySize=auto;html=1;fillColor=#De894E;strokeColor=#D56C2D;curved=1;exitX=0;exitY=0.5;exitDx=0;exitDy=0;fontColor=#FFFFFF;" parent="1" source="fUwWvzhSsq1vZLbVojlY-2" target="zihQ1roNJzVz45EIcrpt-2" edge="1">
          <mxGeometry relative="1" as="geometry">
            <mxPoint x="414" y="35" as="sourcePoint" />
          </mxGeometry>
        </mxCell>
        <mxCell id="zihQ1roNJzVz45EIcrpt-5" value="" style="edgeStyle=orthogonalEdgeStyle;rounded=0;orthogonalLoop=1;jettySize=auto;html=1;fillColor=#De894E;strokeColor=#D56C2D;curved=1;exitX=0.5;exitY=1;exitDx=0;exitDy=0;fontColor=#FFFFFF;" parent="1" source="fUwWvzhSsq1vZLbVojlY-2" target="zihQ1roNJzVz45EIcrpt-4" edge="1">
          <mxGeometry relative="1" as="geometry">
            <mxPoint x="459" y="60" as="sourcePoint" />
          </mxGeometry>
        </mxCell>
        <mxCell id="zihQ1roNJzVz45EIcrpt-17" value="Based on" style="edgeLabel;align=center;verticalAlign=middle;resizable=0;points=[];labelBorderColor=none;html=1;labelBackgroundColor=none;fillColor=#De894E;fontColor=#FFFFFF;" parent="zihQ1roNJzVz45EIcrpt-5" vertex="1" connectable="0">
          <mxGeometry x="-0.6778" y="1" relative="1" as="geometry">
            <mxPoint x="-3" y="1" as="offset" />
          </mxGeometry>
        </mxCell>
        <mxCell id="zihQ1roNJzVz45EIcrpt-8" value="" style="edgeStyle=orthogonalEdgeStyle;rounded=0;orthogonalLoop=1;jettySize=auto;html=1;fillColor=#De894E;strokeColor=#D56C2D;curved=1;fontColor=#FFFFFF;" parent="1" source="zihQ1roNJzVz45EIcrpt-2" target="zihQ1roNJzVz45EIcrpt-7" edge="1">
          <mxGeometry relative="1" as="geometry" />
        </mxCell>
        <mxCell id="zihQ1roNJzVz45EIcrpt-2" value="Deep Neural Network" style="ellipse;whiteSpace=wrap;html=1;rounded=0;fillColor=#D56C2D;fontColor=#FFFFFF;strokeColor=#D56C2D;" parent="1" vertex="1">
          <mxGeometry x="200" y="120" width="120" height="60" as="geometry" />
        </mxCell>
        <mxCell id="zihQ1roNJzVz45EIcrpt-12" value="" style="edgeStyle=orthogonalEdgeStyle;rounded=0;orthogonalLoop=1;jettySize=auto;html=1;fillColor=#De894E;strokeColor=#D56C2D;curved=1;fontColor=#FFFFFF;" parent="1" source="zihQ1roNJzVz45EIcrpt-4" target="zihQ1roNJzVz45EIcrpt-11" edge="1">
          <mxGeometry relative="1" as="geometry" />
        </mxCell>
        <mxCell id="eqceqLkeQAScTDJMVgpy-10" style="edgeStyle=orthogonalEdgeStyle;curved=1;orthogonalLoop=1;jettySize=auto;html=1;strokeColor=#D56C2D;fontColor=#FFFFFF;" parent="1" source="zihQ1roNJzVz45EIcrpt-4" target="zihQ1roNJzVz45EIcrpt-11" edge="1">
          <mxGeometry relative="1" as="geometry" />
        </mxCell>
        <mxCell id="zihQ1roNJzVz45EIcrpt-4" value="Gradient Boost" style="ellipse;whiteSpace=wrap;html=1;rounded=0;fillColor=#D56C2D;fontColor=#FFFFFF;strokeColor=#D56C2D;" parent="1" vertex="1">
          <mxGeometry x="399" y="120" width="120" height="60" as="geometry" />
        </mxCell>
        <mxCell id="zihQ1roNJzVz45EIcrpt-7" value="PyTorch" style="text;html=1;strokeColor=#D56C2D;fillColor=#D56C2D;align=center;verticalAlign=middle;whiteSpace=wrap;rounded=1;fontColor=#FFFFFF;shadow=0;glass=0;" parent="1" vertex="1">
          <mxGeometry x="230" y="225" width="60" height="30" as="geometry" />
        </mxCell>
        <mxCell id="zihQ1roNJzVz45EIcrpt-11" value="XGBoost" style="text;html=1;strokeColor=#D56C2D;fillColor=#D56C2D;align=center;verticalAlign=middle;whiteSpace=wrap;rounded=1;fontColor=#FFFFFF;" parent="1" vertex="1">
          <mxGeometry x="429" y="225" width="60" height="30" as="geometry" />
        </mxCell>
        <mxCell id="eqceqLkeQAScTDJMVgpy-9" value="" style="edgeStyle=orthogonalEdgeStyle;rounded=0;orthogonalLoop=1;jettySize=auto;html=1;fillColor=#De894E;strokeColor=#D56C2D;curved=1;exitX=1;exitY=0.5;exitDx=0;exitDy=0;entryX=0.5;entryY=0;entryDx=0;entryDy=0;fontColor=#FFFFFF;" parent="1" source="fUwWvzhSsq1vZLbVojlY-2" target="fUwWvzhSsq1vZLbVojlY-3" edge="1">
          <mxGeometry relative="1" as="geometry">
            <mxPoint x="504" y="35" as="sourcePoint" />
            <mxPoint x="660" y="120" as="targetPoint" />
          </mxGeometry>
        </mxCell>
        <mxCell id="fUwWvzhSsq1vZLbVojlY-2" value="&lt;h3&gt;Model&lt;/h3&gt;" style="rounded=0;whiteSpace=wrap;html=1;fillColor=#D56C2D;fontColor=#FFFFFF;strokeColor=#D56C2D;" vertex="1" parent="1">
          <mxGeometry x="414" y="10" width="90" height="50" as="geometry" />
        </mxCell>
        <mxCell id="fUwWvzhSsq1vZLbVojlY-3" value="More..." style="ellipse;whiteSpace=wrap;html=1;rounded=0;fillColor=#D56C2D;fontColor=#FFFFFF;strokeColor=#D56C2D;" vertex="1" parent="1">
          <mxGeometry x="600" y="120" width="120" height="60" as="geometry" />
        </mxCell>
        <mxCell id="fUwWvzhSsq1vZLbVojlY-4" value="..." style="text;html=1;strokeColor=#D56C2D;fillColor=#D56C2D;align=center;verticalAlign=middle;whiteSpace=wrap;rounded=1;fontColor=#FFFFFF;" vertex="1" parent="1">
          <mxGeometry x="630" y="225" width="60" height="30" as="geometry" />
        </mxCell>
        <mxCell id="fUwWvzhSsq1vZLbVojlY-6" style="edgeStyle=orthogonalEdgeStyle;curved=1;orthogonalLoop=1;jettySize=auto;html=1;strokeColor=#D56C2D;fontColor=#FFFFFF;" edge="1" parent="1">
          <mxGeometry relative="1" as="geometry">
            <mxPoint x="659.5" y="180" as="sourcePoint" />
            <mxPoint x="659.5" y="225" as="targetPoint" />
          </mxGeometry>
        </mxCell>
      </root>
    </mxGraphModel>
  </diagram>
</mxfile>
